<svg xmlns="http://www.w3.org/2000/svg" width="720" height="720" viewBox="0 0 720 720" fill="none">
<g>
<circle cx="360" cy="360" r="3" fill="#ffffff"></circle>
<circle cx="360.00" cy="300.00" r="2.20" fill="#ffffff" opacity="0.85"></circle>
<circle cx="386.03" cy="305.94" r="2.20" fill="#ffffff" opacity="0.85"></circle>
<circle cx="406.91" cy="322.59" r="2.20" fill="#ffffff" opacity="0.85"></circle>
<circle cx="418.50" cy="346.65" r="2.20" fill="#ffffff" opacity="0.85"></circle>
<circle cx="418.50" cy="373.35" r="2.20" fill="#ffffff" opacity="0.85"></circle>
<circle cx="406.91" cy="397.41" r="2.20" fill="#ffffff" opacity="0.85"></circle>
<circle cx="386.03" cy="414.06" r="2.20" fill="#ffffff" opacity="0.85"></circle>
<circle cx="360.00" cy="420.00" r="2.20" fill="#ffffff" opacity="0.85"></circle>
<circle cx="333.97" cy="414.06" r="2.20" fill="#ffffff" opacity="0.85"></circle>
<circle cx="313.09" cy="397.41" r="2.20" fill="#ffffff" opacity="0.85"></circle>
<circle cx="301.50" cy="373.35" r="2.20" fill="#ffffff" opacity="0.85"></circle>
<circle cx="301.50" cy="346.65" r="2.20" fill="#ffffff" opacity="0.85"></circle>
<circle cx="313.09" cy="322.59" r="2.20" fill="#ffffff" opacity="0.85"></circle>
<circle cx="333.97" cy="305.94" r="2.20" fill="#ffffff" opacity="0.85"></circle>
<circle cx="360.00" cy="264.00" r="2.00" fill="#ffffff" opacity="0.85"></circle>
<circle cx="387.05" cy="267.89" r="2.00" fill="#ffffff" opacity="0.85"></circle>
<circle cx="411.90" cy="279.24" r="2.00" fill="#ffffff" opacity="0.85"></circle>
<circle cx="432.55" cy="297.13" r="2.00" fill="#ffffff" opacity="0.85"></circle>
<circle cx="447.32" cy="320.12" r="2.00" fill="#ffffff" opacity="0.85"></circle>
<circle cx="455.02" cy="346.34" r="2.00" fill="#ffffff" opacity="0.85"></circle>
<circle cx="455.02" cy="373.66" r="2.00" fill="#ffffff" opacity="0.85"></circle>
<circle cx="447.32" cy="399.88" r="2.00" fill="#ffffff" opacity="0.85"></circle>
<circle cx="432.55" cy="422.87" r="2.00" fill="#ffffff" opacity="0.85"></circle>
<circle cx="411.90" cy="440.76" r="2.00" fill="#ffffff" opacity="0.85"></circle>
<circle cx="387.05" cy="452.11" r="2.00" fill="#ffffff" opacity="0.85"></circle>
<circle cx="360.00" cy="456.00" r="2.00" fill="#ffffff" opacity="0.85"></circle>
<circle cx="332.95" cy="452.11" r="2.00" fill="#ffffff" opacity="0.85"></circle>
<circle cx="308.10" cy="440.76" r="2.00" fill="#ffffff" opacity="0.85"></circle>
<circle cx="287.45" cy="422.87" r="2.00" fill="#ffffff" opacity="0.85"></circle>
<circle cx="272.68" cy="399.88" r="2.00" fill="#ffffff" opacity="0.85"></circle>
<circle cx="264.98" cy="373.66" r="2.00" fill="#ffffff" opacity="0.85"></circle>
<circle cx="264.98" cy="346.34" r="2.00" fill="#ffffff" opacity="0.85"></circle>
<circle cx="272.68" cy="320.12" r="2.00" fill="#ffffff" opacity="0.85"></circle>
<circle cx="287.45" cy="297.13" r="2.00" fill="#ffffff" opacity="0.85"></circle>
<circle cx="308.10" cy="279.24" r="2.00" fill="#ffffff" opacity="0.85"></circle>
<circle cx="332.95" cy="267.89" r="2.00" fill="#ffffff" opacity="0.85"></circle>
<circle cx="360.00" cy="228.00" r="2.50" fill="#ffffff" opacity="1"></circle>
<circle cx="387.44" cy="230.88" r="2.50" fill="#ffffff" opacity="1"></circle>
<circle cx="413.69" cy="239.41" r="2.50" fill="#ffffff" opacity="1"></circle>
<circle cx="437.59" cy="253.21" r="2.50" fill="#ffffff" opacity="1"></circle>
<circle cx="458.10" cy="271.67" r="2.50" fill="#ffffff" opacity="1"></circle>
<circle cx="474.32" cy="294.00" r="2.50" fill="#ffffff" opacity="1"></circle>
<circle cx="485.54" cy="319.21" r="2.50" fill="#ffffff" opacity="1"></circle>
<circle cx="491.28" cy="346.20" r="2.50" fill="#ffffff" opacity="1"></circle>
<circle cx="491.28" cy="373.80" r="2.50" fill="#ffffff" opacity="1"></circle>
<circle cx="485.54" cy="400.79" r="2.50" fill="#ffffff" opacity="1"></circle>
<circle cx="474.32" cy="426.00" r="2.50" fill="#ffffff" opacity="1"></circle>
<circle cx="458.10" cy="448.33" r="2.50" fill="#ffffff" opacity="1"></circle>
<circle cx="437.59" cy="466.79" r="2.50" fill="#ffffff" opacity="1"></circle>
<circle cx="413.69" cy="480.59" r="2.50" fill="#ffffff" opacity="1"></circle>
<circle cx="387.44" cy="489.12" r="2.50" fill="#ffffff" opacity="1"></circle>
<circle cx="360.00" cy="492.00" r="2.50" fill="#ffffff" opacity="1"></circle>
<circle cx="332.56" cy="489.12" r="2.50" fill="#ffffff" opacity="1"></circle>
<circle cx="306.31" cy="480.59" r="2.50" fill="#ffffff" opacity="1"></circle>
<circle cx="282.41" cy="466.79" r="2.50" fill="#ffffff" opacity="1"></circle>
<circle cx="261.90" cy="448.33" r="2.50" fill="#ffffff" opacity="1"></circle>
<circle cx="245.68" cy="426.00" r="2.50" fill="#ffffff" opacity="1"></circle>
<circle cx="234.46" cy="400.79" r="2.50" fill="#ffffff" opacity="1"></circle>
<circle cx="228.72" cy="373.80" r="2.50" fill="#ffffff" opacity="1"></circle>
<circle cx="228.72" cy="346.20" r="2.50" fill="#ffffff" opacity="1"></circle>
<circle cx="234.46" cy="319.21" r="2.50" fill="#ffffff" opacity="1"></circle>
<circle cx="245.68" cy="294.00" r="2.50" fill="#ffffff" opacity="1"></circle>
<circle cx="261.90" cy="271.67" r="2.50" fill="#ffffff" opacity="1"></circle>
<circle cx="282.41" cy="253.21" r="2.50" fill="#ffffff" opacity="1"></circle>
<circle cx="306.31" cy="239.41" r="2.50" fill="#ffffff" opacity="1"></circle>
<circle cx="332.56" cy="230.88" r="2.50" fill="#ffffff" opacity="1"></circle>
<circle cx="360.00" cy="192.00" r="2.50" fill="#ffffff" opacity="1"></circle>
<circle cx="387.65" cy="194.29" r="2.00" fill="#ffffff" opacity="0.85"></circle>
<circle cx="414.55" cy="201.10" r="2.50" fill="#ffffff" opacity="1"></circle>
<circle cx="439.96" cy="212.25" r="2.00" fill="#ffffff" opacity="0.85"></circle>
<circle cx="463.19" cy="227.42" r="2.50" fill="#ffffff" opacity="1"></circle>
<circle cx="483.60" cy="246.22" r="2.00" fill="#ffffff" opacity="0.85"></circle>
<circle cx="500.64" cy="268.11" r="2.50" fill="#ffffff" opacity="1"></circle>
<circle cx="513.85" cy="292.52" r="2.00" fill="#ffffff" opacity="0.85"></circle>
<circle cx="522.86" cy="318.76" r="2.50" fill="#ffffff" opacity="1"></circle>
<circle cx="527.43" cy="346.13" r="2.00" fill="#ffffff" opacity="0.85"></circle>
<circle cx="527.43" cy="373.87" r="2.50" fill="#ffffff" opacity="1"></circle>
<circle cx="522.86" cy="401.24" r="2.00" fill="#ffffff" opacity="0.85"></circle>
<circle cx="513.85" cy="427.48" r="2.50" fill="#ffffff" opacity="1"></circle>
<circle cx="500.64" cy="451.89" r="2.00" fill="#ffffff" opacity="0.85"></circle>
<circle cx="483.60" cy="473.78" r="2.50" fill="#ffffff" opacity="1"></circle>
<circle cx="463.19" cy="492.58" r="2.00" fill="#ffffff" opacity="0.85"></circle>
<circle cx="439.96" cy="507.75" r="2.50" fill="#ffffff" opacity="1"></circle>
<circle cx="414.55" cy="518.90" r="2.00" fill="#ffffff" opacity="0.85"></circle>
<circle cx="387.65" cy="525.71" r="2.50" fill="#ffffff" opacity="1"></circle>
<circle cx="360.00" cy="528.00" r="2.00" fill="#ffffff" opacity="0.85"></circle>
<circle cx="332.35" cy="525.71" r="2.50" fill="#ffffff" opacity="1"></circle>
<circle cx="305.45" cy="518.90" r="2.00" fill="#ffffff" opacity="0.85"></circle>
<circle cx="280.04" cy="507.75" r="2.50" fill="#ffffff" opacity="1"></circle>
<circle cx="256.81" cy="492.58" r="2.00" fill="#ffffff" opacity="0.85"></circle>
<circle cx="236.40" cy="473.78" r="2.50" fill="#ffffff" opacity="1"></circle>
<circle cx="219.36" cy="451.89" r="2.00" fill="#ffffff" opacity="0.85"></circle>
<circle cx="206.15" cy="427.48" r="2.50" fill="#ffffff" opacity="1"></circle>
<circle cx="197.14" cy="401.24" r="2.00" fill="#ffffff" opacity="0.85"></circle>
<circle cx="192.57" cy="373.87" r="2.50" fill="#ffffff" opacity="1"></circle>
<circle cx="192.57" cy="346.13" r="2.00" fill="#ffffff" opacity="0.85"></circle>
<circle cx="197.14" cy="318.76" r="2.50" fill="#ffffff" opacity="1"></circle>
<circle cx="206.15" cy="292.52" r="2.00" fill="#ffffff" opacity="0.85"></circle>
<circle cx="219.36" cy="268.11" r="2.50" fill="#ffffff" opacity="1"></circle>
<circle cx="236.40" cy="246.22" r="2.00" fill="#ffffff" opacity="0.85"></circle>
<circle cx="256.81" cy="227.42" r="2.50" fill="#ffffff" opacity="1"></circle>
<circle cx="280.04" cy="212.25" r="2.00" fill="#ffffff" opacity="0.85"></circle>
<circle cx="305.45" cy="201.10" r="2.50" fill="#ffffff" opacity="1"></circle>
<circle cx="332.35" cy="194.29" r="2.00" fill="#ffffff" opacity="0.85"></circle>
<circle cx="360.00" cy="154.00" r="2.75" fill="#ffffff" opacity="1"></circle>
<circle cx="388.05" cy="155.92" r="2.20" fill="#ffffff" opacity="0.85"></circle>
<circle cx="415.58" cy="161.64" r="2.75" fill="#ffffff" opacity="1"></circle>
<circle cx="442.07" cy="171.05" r="2.20" fill="#ffffff" opacity="0.85"></circle>
<circle cx="467.03" cy="183.99" r="2.75" fill="#ffffff" opacity="1"></circle>
<circle cx="490.00" cy="200.20" r="2.20" fill="#ffffff" opacity="0.85"></circle>
<circle cx="510.55" cy="219.39" r="2.75" fill="#ffffff" opacity="1"></circle>
<circle cx="528.30" cy="241.20" r="2.20" fill="#ffffff" opacity="0.85"></circle>
<circle cx="542.90" cy="265.23" r="2.75" fill="#ffffff" opacity="1"></circle>
<circle cx="554.11" cy="291.01" r="2.20" fill="#ffffff" opacity="0.85"></circle>
<circle cx="561.69" cy="318.09" r="2.75" fill="#ffffff" opacity="1"></circle>
<circle cx="565.52" cy="345.94" r="2.20" fill="#ffffff" opacity="0.85"></circle>
<circle cx="565.52" cy="374.06" r="2.75" fill="#ffffff" opacity="1"></circle>
<circle cx="561.69" cy="401.91" r="2.20" fill="#ffffff" opacity="0.85"></circle>
<circle cx="554.11" cy="428.99" r="2.75" fill="#ffffff" opacity="1"></circle>
<circle cx="542.90" cy="454.77" r="2.20" fill="#ffffff" opacity="0.85"></circle>
<circle cx="528.30" cy="478.80" r="2.75" fill="#ffffff" opacity="1"></circle>
<circle cx="510.55" cy="500.61" r="2.20" fill="#ffffff" opacity="0.85"></circle>
<circle cx="490.00" cy="519.80" r="2.75" fill="#ffffff" opacity="1"></circle>
<circle cx="467.03" cy="536.01" r="2.20" fill="#ffffff" opacity="0.85"></circle>
<circle cx="442.07" cy="548.95" r="2.75" fill="#ffffff" opacity="1"></circle>
<circle cx="415.58" cy="558.36" r="2.20" fill="#ffffff" opacity="0.85"></circle>
<circle cx="388.05" cy="564.08" r="2.75" fill="#ffffff" opacity="1"></circle>
<circle cx="360.00" cy="566.00" r="2.20" fill="#ffffff" opacity="0.85"></circle>
<circle cx="331.95" cy="564.08" r="2.75" fill="#ffffff" opacity="1"></circle>
<circle cx="304.42" cy="558.36" r="2.20" fill="#ffffff" opacity="0.85"></circle>
<circle cx="277.93" cy="548.95" r="2.75" fill="#ffffff" opacity="1"></circle>
<circle cx="252.97" cy="536.01" r="2.20" fill="#ffffff" opacity="0.85"></circle>
<circle cx="230.00" cy="519.80" r="2.75" fill="#ffffff" opacity="1"></circle>
<circle cx="209.45" cy="500.61" r="2.20" fill="#ffffff" opacity="0.85"></circle>
<circle cx="191.70" cy="478.80" r="2.75" fill="#ffffff" opacity="1"></circle>
<circle cx="177.10" cy="454.77" r="2.20" fill="#ffffff" opacity="0.85"></circle>
<circle cx="165.89" cy="428.99" r="2.75" fill="#ffffff" opacity="1"></circle>
<circle cx="158.31" cy="401.91" r="2.20" fill="#ffffff" opacity="0.85"></circle>
<circle cx="154.48" cy="374.06" r="2.75" fill="#ffffff" opacity="1"></circle>
<circle cx="154.48" cy="345.94" r="2.20" fill="#ffffff" opacity="0.85"></circle>
<circle cx="158.31" cy="318.09" r="2.75" fill="#ffffff" opacity="1"></circle>
<circle cx="165.89" cy="291.01" r="2.20" fill="#ffffff" opacity="0.85"></circle>
<circle cx="177.10" cy="265.23" r="2.75" fill="#ffffff" opacity="1"></circle>
<circle cx="191.70" cy="241.20" r="2.20" fill="#ffffff" opacity="0.85"></circle>
<circle cx="209.45" cy="219.39" r="2.75" fill="#ffffff" opacity="1"></circle>
<circle cx="230.00" cy="200.20" r="2.20" fill="#ffffff" opacity="0.85"></circle>
<circle cx="252.97" cy="183.99" r="2.75" fill="#ffffff" opacity="1"></circle>
<circle cx="277.93" cy="171.05" r="2.20" fill="#ffffff" opacity="0.85"></circle>
<circle cx="304.42" cy="161.64" r="2.75" fill="#ffffff" opacity="1"></circle>
<circle cx="331.95" cy="155.92" r="2.20" fill="#ffffff" opacity="0.85"></circle>
<circle cx="360.00" cy="116.00" r="3.00" fill="#ffffff" opacity="1"></circle>
<circle cx="389.41" cy="117.78" r="2.40" fill="#ffffff" opacity="0.85"></circle>
<circle cx="418.39" cy="123.09" r="2.40" fill="#ffffff" opacity="0.85"></circle>
<circle cx="446.52" cy="131.86" r="3.00" fill="#ffffff" opacity="1"></circle>
<circle cx="473.39" cy="143.95" r="2.40" fill="#ffffff" opacity="0.85"></circle>
<circle cx="498.61" cy="159.19" r="2.40" fill="#ffffff" opacity="0.85"></circle>
<circle cx="521.80" cy="177.36" r="3.00" fill="#ffffff" opacity="1"></circle>
<circle cx="542.64" cy="198.20" r="2.40" fill="#ffffff" opacity="0.85"></circle>
<circle cx="560.81" cy="221.39" r="2.40" fill="#ffffff" opacity="0.85"></circle>
<circle cx="576.05" cy="246.61" r="3.00" fill="#ffffff" opacity="1"></circle>
<circle cx="588.14" cy="273.48" r="2.40" fill="#ffffff" opacity="0.85"></circle>
<circle cx="596.91" cy="301.61" r="2.40" fill="#ffffff" opacity="0.85"></circle>
<circle cx="602.22" cy="330.59" r="3.00" fill="#ffffff" opacity="1"></circle>
<circle cx="604.00" cy="360.00" r="2.40" fill="#ffffff" opacity="0.85"></circle>
<circle cx="602.22" cy="389.41" r="2.40" fill="#ffffff" opacity="0.85"></circle>
<circle cx="596.91" cy="418.39" r="3.00" fill="#ffffff" opacity="1"></circle>
<circle cx="588.14" cy="446.52" r="2.40" fill="#ffffff" opacity="0.85"></circle>
<circle cx="576.05" cy="473.39" r="2.40" fill="#ffffff" opacity="0.85"></circle>
<circle cx="560.81" cy="498.61" r="3.00" fill="#ffffff" opacity="1"></circle>
<circle cx="542.64" cy="521.80" r="2.40" fill="#ffffff" opacity="0.85"></circle>
<circle cx="521.80" cy="542.64" r="2.40" fill="#ffffff" opacity="0.85"></circle>
<circle cx="498.61" cy="560.81" r="3.00" fill="#ffffff" opacity="1"></circle>
<circle cx="473.39" cy="576.05" r="2.40" fill="#ffffff" opacity="0.85"></circle>
<circle cx="446.52" cy="588.14" r="2.40" fill="#ffffff" opacity="0.85"></circle>
<circle cx="418.39" cy="596.91" r="3.00" fill="#ffffff" opacity="1"></circle>
<circle cx="389.41" cy="602.22" r="2.40" fill="#ffffff" opacity="0.85"></circle>
<circle cx="360.00" cy="604.00" r="2.40" fill="#ffffff" opacity="0.85"></circle>
<circle cx="330.59" cy="602.22" r="3.00" fill="#ffffff" opacity="1"></circle>
<circle cx="301.61" cy="596.91" r="2.40" fill="#ffffff" opacity="0.85"></circle>
<circle cx="273.48" cy="588.14" r="2.40" fill="#ffffff" opacity="0.85"></circle>
<circle cx="246.61" cy="576.05" r="3.00" fill="#ffffff" opacity="1"></circle>
<circle cx="221.39" cy="560.81" r="2.40" fill="#ffffff" opacity="0.85"></circle>
<circle cx="198.20" cy="542.64" r="2.40" fill="#ffffff" opacity="0.85"></circle>
<circle cx="177.36" cy="521.80" r="3.00" fill="#ffffff" opacity="1"></circle>
<circle cx="159.19" cy="498.61" r="2.40" fill="#ffffff" opacity="0.85"></circle>
<circle cx="143.95" cy="473.39" r="2.40" fill="#ffffff" opacity="0.85"></circle>
<circle cx="131.86" cy="446.52" r="3.00" fill="#ffffff" opacity="1"></circle>
<circle cx="123.09" cy="418.39" r="2.40" fill="#ffffff" opacity="0.85"></circle>
<circle cx="117.78" cy="389.41" r="2.40" fill="#ffffff" opacity="0.85"></circle>
<circle cx="116.00" cy="360.00" r="3.00" fill="#ffffff" opacity="1"></circle>
<circle cx="117.78" cy="330.59" r="2.40" fill="#ffffff" opacity="0.85"></circle>
<circle cx="123.09" cy="301.61" r="2.40" fill="#ffffff" opacity="0.85"></circle>
<circle cx="131.86" cy="273.48" r="3.00" fill="#ffffff" opacity="1"></circle>
<circle cx="143.95" cy="246.61" r="2.40" fill="#ffffff" opacity="0.85"></circle>
<circle cx="159.19" cy="221.39" r="2.40" fill="#ffffff" opacity="0.85"></circle>
<circle cx="177.36" cy="198.20" r="3.00" fill="#ffffff" opacity="1"></circle>
<circle cx="198.20" cy="177.36" r="2.40" fill="#ffffff" opacity="0.85"></circle>
<circle cx="221.39" cy="159.19" r="2.40" fill="#ffffff" opacity="0.85"></circle>
<circle cx="246.61" cy="143.95" r="3.00" fill="#ffffff" opacity="1"></circle>
<circle cx="273.48" cy="131.86" r="2.40" fill="#ffffff" opacity="0.85"></circle>
<circle cx="301.61" cy="123.09" r="2.40" fill="#ffffff" opacity="0.85"></circle>
<circle cx="330.59" cy="117.78" r="3.00" fill="#ffffff" opacity="1"></circle>
<circle cx="360.00" cy="78.00" r="3.00" fill="#ffffff" opacity="1"></circle>
<circle cx="389.48" cy="79.54" r="2.40" fill="#ffffff" opacity="0.85"></circle>
<circle cx="418.63" cy="84.16" r="2.40" fill="#ffffff" opacity="0.85"></circle>
<circle cx="447.14" cy="91.80" r="3.00" fill="#ffffff" opacity="1"></circle>
<circle cx="474.70" cy="102.38" r="2.40" fill="#ffffff" opacity="0.85"></circle>
<circle cx="501.00" cy="115.78" r="2.40" fill="#ffffff" opacity="0.85"></circle>
<circle cx="525.76" cy="131.86" r="3.00" fill="#ffffff" opacity="1"></circle>
<circle cx="548.69" cy="150.43" r="2.40" fill="#ffffff" opacity="0.85"></circle>
<circle cx="569.57" cy="171.31" r="2.40" fill="#ffffff" opacity="0.85"></circle>
<circle cx="588.14" cy="194.24" r="3.00" fill="#ffffff" opacity="1"></circle>
<circle cx="604.22" cy="219.00" r="2.40" fill="#ffffff" opacity="0.85"></circle>
<circle cx="617.62" cy="245.30" r="2.40" fill="#ffffff" opacity="0.85"></circle>
<circle cx="628.20" cy="272.86" r="3.00" fill="#ffffff" opacity="1"></circle>
<circle cx="635.84" cy="301.37" r="2.40" fill="#ffffff" opacity="0.85"></circle>
<circle cx="640.46" cy="330.52" r="2.40" fill="#ffffff" opacity="0.85"></circle>
<circle cx="642.00" cy="360.00" r="3.00" fill="#ffffff" opacity="1"></circle>
<circle cx="640.46" cy="389.48" r="2.40" fill="#ffffff" opacity="0.85"></circle>
<circle cx="635.84" cy="418.63" r="2.40" fill="#ffffff" opacity="0.85"></circle>
<circle cx="628.20" cy="447.14" r="3.00" fill="#ffffff" opacity="1"></circle>
<circle cx="617.62" cy="474.70" r="2.40" fill="#ffffff" opacity="0.85"></circle>
<circle cx="604.22" cy="501.00" r="2.40" fill="#ffffff" opacity="0.85"></circle>
<circle cx="588.14" cy="525.76" r="3.00" fill="#ffffff" opacity="1"></circle>
<circle cx="569.57" cy="548.69" r="2.40" fill="#ffffff" opacity="0.85"></circle>
<circle cx="548.69" cy="569.57" r="2.40" fill="#ffffff" opacity="0.85"></circle>
<circle cx="525.76" cy="588.14" r="3.00" fill="#ffffff" opacity="1"></circle>
<circle cx="501.00" cy="604.22" r="2.40" fill="#ffffff" opacity="0.85"></circle>
<circle cx="474.70" cy="617.62" r="2.40" fill="#ffffff" opacity="0.85"></circle>
<circle cx="447.14" cy="628.20" r="3.00" fill="#ffffff" opacity="1"></circle>
<circle cx="418.63" cy="635.84" r="2.40" fill="#ffffff" opacity="0.85"></circle>
<circle cx="389.48" cy="640.46" r="2.40" fill="#ffffff" opacity="0.85"></circle>
<circle cx="360.00" cy="642.00" r="3.00" fill="#ffffff" opacity="1"></circle>
<circle cx="330.52" cy="640.46" r="2.40" fill="#ffffff" opacity="0.85"></circle>
<circle cx="301.37" cy="635.84" r="2.40" fill="#ffffff" opacity="0.85"></circle>
<circle cx="272.86" cy="628.20" r="3.00" fill="#ffffff" opacity="1"></circle>
<circle cx="245.30" cy="617.62" r="2.40" fill="#ffffff" opacity="0.85"></circle>
<circle cx="219.00" cy="604.22" r="2.40" fill="#ffffff" opacity="0.85"></circle>
<circle cx="194.24" cy="588.14" r="3.00" fill="#ffffff" opacity="1"></circle>
<circle cx="171.31" cy="569.57" r="2.40" fill="#ffffff" opacity="0.85"></circle>
<circle cx="150.43" cy="548.69" r="2.40" fill="#ffffff" opacity="0.85"></circle>
<circle cx="131.86" cy="525.76" r="3.00" fill="#ffffff" opacity="1"></circle>
<circle cx="115.78" cy="501.00" r="2.40" fill="#ffffff" opacity="0.85"></circle>
<circle cx="102.38" cy="474.70" r="2.40" fill="#ffffff" opacity="0.85"></circle>
<circle cx="91.80" cy="447.14" r="3.00" fill="#ffffff" opacity="1"></circle>
<circle cx="84.16" cy="418.63" r="2.40" fill="#ffffff" opacity="0.85"></circle>
<circle cx="79.54" cy="389.48" r="2.40" fill="#ffffff" opacity="0.85"></circle>
<circle cx="78.00" cy="360.00" r="3.00" fill="#ffffff" opacity="1"></circle>
<circle cx="79.54" cy="330.52" r="2.40" fill="#ffffff" opacity="0.85"></circle>
<circle cx="84.16" cy="301.37" r="2.40" fill="#ffffff" opacity="0.85"></circle>
<circle cx="91.80" cy="272.86" r="3.00" fill="#ffffff" opacity="1"></circle>
<circle cx="102.38" cy="245.30" r="2.40" fill="#ffffff" opacity="0.85"></circle>
<circle cx="115.78" cy="219.00" r="2.40" fill="#ffffff" opacity="0.85"></circle>
<circle cx="131.86" cy="194.24" r="3.00" fill="#ffffff" opacity="1"></circle>
<circle cx="150.43" cy="171.31" r="2.40" fill="#ffffff" opacity="0.85"></circle>
<circle cx="171.31" cy="150.43" r="2.40" fill="#ffffff" opacity="0.85"></circle>
<circle cx="194.24" cy="131.86" r="3.00" fill="#ffffff" opacity="1"></circle>
<circle cx="219.00" cy="115.78" r="2.40" fill="#ffffff" opacity="0.85"></circle>
<circle cx="245.30" cy="102.38" r="2.40" fill="#ffffff" opacity="0.85"></circle>
<circle cx="272.86" cy="91.80" r="3.00" fill="#ffffff" opacity="1"></circle>
<circle cx="301.37" cy="84.16" r="2.40" fill="#ffffff" opacity="0.85"></circle>
<circle cx="330.52" cy="79.54" r="2.40" fill="#ffffff" opacity="0.85"></circle>
<circle cx="360.00" cy="40.00" r="3.25" fill="#ffffff" opacity="1"></circle>
<circle cx="389.53" cy="41.37" r="2.60" fill="#ffffff" opacity="0.85"></circle>
<circle cx="418.80" cy="45.45" r="2.60" fill="#ffffff" opacity="0.85"></circle>
<circle cx="447.57" cy="52.22" r="2.60" fill="#ffffff" opacity="0.85"></circle>
<circle cx="475.60" cy="61.61" r="3.25" fill="#ffffff" opacity="1"></circle>
<circle cx="502.64" cy="73.55" r="2.60" fill="#ffffff" opacity="0.85"></circle>
<circle cx="528.46" cy="87.93" r="2.60" fill="#ffffff" opacity="0.85"></circle>
<circle cx="552.84" cy="104.63" r="2.60" fill="#ffffff" opacity="0.85"></circle>
<circle cx="575.58" cy="123.52" r="3.25" fill="#ffffff" opacity="1"></circle>
<circle cx="596.48" cy="144.42" r="2.60" fill="#ffffff" opacity="0.85"></circle>
<circle cx="615.37" cy="167.16" r="2.60" fill="#ffffff" opacity="0.85"></circle>
<circle cx="632.07" cy="191.54" r="2.60" fill="#ffffff" opacity="0.85"></circle>
<circle cx="646.45" cy="217.36" r="3.25" fill="#ffffff" opacity="1"></circle>
<circle cx="658.39" cy="244.40" r="2.60" fill="#ffffff" opacity="0.85"></circle>
<circle cx="667.78" cy="272.43" r="2.60" fill="#ffffff" opacity="0.85"></circle>
<circle cx="674.55" cy="301.20" r="2.60" fill="#ffffff" opacity="0.85"></circle>
<circle cx="678.63" cy="330.47" r="3.25" fill="#ffffff" opacity="1"></circle>
<circle cx="680.00" cy="360.00" r="2.60" fill="#ffffff" opacity="0.85"></circle>
<circle cx="678.63" cy="389.53" r="2.60" fill="#ffffff" opacity="0.85"></circle>
<circle cx="674.55" cy="418.80" r="2.60" fill="#ffffff" opacity="0.85"></circle>
<circle cx="667.78" cy="447.57" r="3.25" fill="#ffffff" opacity="1"></circle>
<circle cx="658.39" cy="475.60" r="2.60" fill="#ffffff" opacity="0.85"></circle>
<circle cx="646.45" cy="502.64" r="2.60" fill="#ffffff" opacity="0.85"></circle>
<circle cx="632.07" cy="528.46" r="2.60" fill="#ffffff" opacity="0.85"></circle>
<circle cx="615.37" cy="552.84" r="3.25" fill="#ffffff" opacity="1"></circle>
<circle cx="596.48" cy="575.58" r="2.60" fill="#ffffff" opacity="0.85"></circle>
<circle cx="575.58" cy="596.48" r="2.60" fill="#ffffff" opacity="0.85"></circle>
<circle cx="552.84" cy="615.37" r="2.60" fill="#ffffff" opacity="0.85"></circle>
<circle cx="528.46" cy="632.07" r="3.25" fill="#ffffff" opacity="1"></circle>
<circle cx="502.64" cy="646.45" r="2.60" fill="#ffffff" opacity="0.85"></circle>
<circle cx="475.60" cy="658.39" r="2.60" fill="#ffffff" opacity="0.85"></circle>
<circle cx="447.57" cy="667.78" r="2.60" fill="#ffffff" opacity="0.85"></circle>
<circle cx="418.80" cy="674.55" r="3.25" fill="#ffffff" opacity="1"></circle>
<circle cx="389.53" cy="678.63" r="2.60" fill="#ffffff" opacity="0.85"></circle>
<circle cx="360.00" cy="680.00" r="2.60" fill="#ffffff" opacity="0.85"></circle>
<circle cx="330.47" cy="678.63" r="2.60" fill="#ffffff" opacity="0.85"></circle>
<circle cx="301.20" cy="674.55" r="3.25" fill="#ffffff" opacity="1"></circle>
<circle cx="272.43" cy="667.78" r="2.60" fill="#ffffff" opacity="0.85"></circle>
<circle cx="244.40" cy="658.39" r="2.60" fill="#ffffff" opacity="0.85"></circle>
<circle cx="217.36" cy="646.45" r="2.60" fill="#ffffff" opacity="0.85"></circle>
<circle cx="191.54" cy="632.07" r="3.25" fill="#ffffff" opacity="1"></circle>
<circle cx="167.16" cy="615.37" r="2.60" fill="#ffffff" opacity="0.85"></circle>
<circle cx="144.42" cy="596.48" r="2.60" fill="#ffffff" opacity="0.85"></circle>
<circle cx="123.52" cy="575.58" r="2.60" fill="#ffffff" opacity="0.85"></circle>
<circle cx="104.63" cy="552.84" r="3.25" fill="#ffffff" opacity="1"></circle>
<circle cx="87.93" cy="528.46" r="2.60" fill="#ffffff" opacity="0.85"></circle>
<circle cx="73.55" cy="502.64" r="2.60" fill="#ffffff" opacity="0.85"></circle>
<circle cx="61.61" cy="475.60" r="2.60" fill="#ffffff" opacity="0.85"></circle>
<circle cx="52.22" cy="447.57" r="3.25" fill="#ffffff" opacity="1"></circle>
<circle cx="45.45" cy="418.80" r="2.60" fill="#ffffff" opacity="0.85"></circle>
<circle cx="41.37" cy="389.53" r="2.60" fill="#ffffff" opacity="0.85"></circle>
<circle cx="40.00" cy="360.00" r="2.60" fill="#ffffff" opacity="0.85"></circle>
<circle cx="41.37" cy="330.47" r="3.25" fill="#ffffff" opacity="1"></circle>
<circle cx="45.45" cy="301.20" r="2.60" fill="#ffffff" opacity="0.85"></circle>
<circle cx="52.22" cy="272.43" r="2.60" fill="#ffffff" opacity="0.85"></circle>
<circle cx="61.61" cy="244.40" r="2.60" fill="#ffffff" opacity="0.85"></circle>
<circle cx="73.55" cy="217.36" r="3.25" fill="#ffffff" opacity="1"></circle>
<circle cx="87.93" cy="191.54" r="2.60" fill="#ffffff" opacity="0.85"></circle>
<circle cx="104.63" cy="167.16" r="2.60" fill="#ffffff" opacity="0.85"></circle>
<circle cx="123.52" cy="144.42" r="2.60" fill="#ffffff" opacity="0.85"></circle>
<circle cx="144.42" cy="123.52" r="3.25" fill="#ffffff" opacity="1"></circle>
<circle cx="167.16" cy="104.63" r="2.60" fill="#ffffff" opacity="0.85"></circle>
<circle cx="191.54" cy="87.93" r="2.60" fill="#ffffff" opacity="0.85"></circle>
<circle cx="217.36" cy="73.55" r="2.60" fill="#ffffff" opacity="0.85"></circle>
<circle cx="244.40" cy="61.61" r="3.25" fill="#ffffff" opacity="1"></circle>
<circle cx="272.43" cy="52.22" r="2.60" fill="#ffffff" opacity="0.85"></circle>
<circle cx="301.20" cy="45.45" r="2.60" fill="#ffffff" opacity="0.85"></circle>
<circle cx="330.47" cy="41.37" r="2.60" fill="#ffffff" opacity="0.85"></circle>
</g>
</svg>