<svg width="28" height="28" viewBox="0 0 28 28" fill="none" xmlns="http://www.w3.org/2000/svg">
<path d="M14 11.3048C14.3308 11.3048 14.5989 11.0366 14.5989 10.7059C14.5989 10.3751 14.3308 10.1069 14 10.1069C13.6692 10.1069 13.4011 10.3751 13.4011 10.7059C13.4011 11.0366 13.6692 11.3048 14 11.3048Z" fill="#999999"/>
<path d="M14 8.83431C14.4548 8.83431 14.8235 8.46561 14.8235 8.01079C14.8235 7.55596 14.4548 7.18726 14 7.18726C13.5452 7.18726 13.1765 7.55596 13.1765 8.01079C13.1765 8.46561 13.5452 8.83431 14 8.83431Z" fill="#5E5E5E"/>
<path d="M14 6.06427C14.5788 6.06427 15.0481 5.59501 15.0481 5.01615C15.0481 4.43728 14.5788 3.96802 14 3.96802C13.4211 3.96802 12.9518 4.43728 12.9518 5.01615C12.9518 5.59501 13.4211 6.06427 14 6.06427Z" fill="#454545"/>
<path d="M14 2.84492C14.7856 2.84492 15.4224 2.20806 15.4224 1.42246C15.4224 0.636858 14.7856 0 14 0C13.2144 0 12.5775 0.636858 12.5775 1.42246C12.5775 2.20806 13.2144 2.84492 14 2.84492Z" fill="#0D0D0D"/>
<path d="M15.3471 11.665C15.6332 11.8308 15.9995 11.7332 16.1652 11.4471C16.331 11.161 16.2335 10.7947 15.9474 10.629C15.6613 10.4632 15.295 10.5608 15.1292 10.8469C14.9635 11.133 15.061 11.4993 15.3471 11.665Z" fill="#999999"/>
<path d="M16.5821 9.52523C16.9755 9.75315 17.4791 9.61901 17.7071 9.22563C17.935 8.83225 17.8009 8.32859 17.4075 8.10067C17.0141 7.87275 16.5105 8.00689 16.2825 8.40027C16.0546 8.79365 16.1887 9.29731 16.5821 9.52523Z" fill="#5E5E5E"/>
<path d="M17.9669 7.12591C18.4675 7.41598 19.1086 7.24527 19.3987 6.7446C19.6887 6.24393 19.5181 5.60291 19.0174 5.31283C18.5168 5.02275 17.8757 5.19347 17.5856 5.69414C17.2955 6.1948 17.4662 6.83583 17.9669 7.12591Z" fill="#454545"/>
<path d="M19.5761 4.33773C20.2555 4.7314 21.1255 4.49972 21.5192 3.82024C21.9129 3.14076 21.6813 2.2708 21.0018 1.87712C20.3224 1.48344 19.4524 1.71513 19.0587 2.39461C18.665 3.07409 18.8966 3.94405 19.5761 4.33773Z" fill="#0D0D0D"/>
<path d="M16.3346 12.653C16.5004 12.939 16.8667 13.0366 17.1528 12.8708C17.4389 12.7051 17.5364 12.3388 17.3706 12.0527C17.2049 11.7666 16.8386 11.669 16.5525 11.8348C16.2664 12.0006 16.1689 12.3669 16.3346 12.653Z" fill="#999999"/>
<path d="M18.4745 11.4178C18.7025 11.8112 19.2061 11.9453 19.5995 11.7174C19.9929 11.4895 20.127 10.9858 19.899 10.5924C19.6711 10.199 19.1674 10.0649 18.7741 10.2928C18.3807 10.5207 18.2466 11.0244 18.4745 11.4178Z" fill="#5E5E5E"/>
<path d="M20.8737 10.0332C21.1638 10.5338 21.8048 10.7046 22.3055 10.4145C22.8061 10.1244 22.9768 9.48338 22.6867 8.98271C22.3966 8.48204 21.7556 8.31133 21.2549 8.6014C20.7543 8.89148 20.5836 9.53251 20.8737 10.0332Z" fill="#454545"/>
<path d="M23.6621 8.424C24.0558 9.10347 24.9257 9.33516 25.6052 8.94149C26.2846 8.54781 26.5163 7.67785 26.1226 6.99837C25.7289 6.31889 24.8589 6.0872 24.1795 6.48088C23.5 6.87456 23.2684 7.74452 23.6621 8.424Z" fill="#0D0D0D"/>
<path d="M16.6952 14.0001C16.6952 14.3308 16.9634 14.599 17.2941 14.599C17.6249 14.599 17.8931 14.3308 17.8931 14.0001C17.8931 13.6693 17.6249 13.4011 17.2941 13.4011C16.9634 13.4011 16.6952 13.6693 16.6952 14.0001Z" fill="#999999"/>
<path d="M19.1657 14C19.1657 14.4549 19.5345 14.8236 19.9893 14.8236C20.4441 14.8236 20.8128 14.4549 20.8128 14C20.8128 13.5452 20.4441 13.1765 19.9893 13.1765C19.5345 13.1765 19.1657 13.5452 19.1657 14Z" fill="#5E5E5E"/>
<path d="M21.9358 14C21.9358 14.5789 22.4051 15.0482 22.984 15.0482C23.5628 15.0482 24.0321 14.5789 24.0321 14C24.0321 13.4212 23.5628 12.9519 22.984 12.9519C22.4051 12.9519 21.9358 13.4212 21.9358 14Z" fill="#454545"/>
<path d="M25.1551 14.0001C25.1551 14.7857 25.7919 15.4226 26.5775 15.4226C27.3631 15.4226 28 14.7857 28 14.0001C28 13.2145 27.3631 12.5776 26.5775 12.5776C25.7919 12.5776 25.1551 13.2145 25.1551 14.0001Z" fill="#0D0D0D"/>
<path d="M16.3348 15.347C16.169 15.6331 16.2666 15.9994 16.5527 16.1651C16.8387 16.3309 17.205 16.2333 17.3708 15.9472C17.5366 15.6611 17.439 15.2948 17.153 15.1291C16.8669 14.9633 16.5006 15.0609 16.3348 15.347Z" fill="#999999"/>
<path d="M18.4746 16.582C18.2467 16.9754 18.3808 17.479 18.7742 17.7069C19.1675 17.9349 19.6712 17.8007 19.8991 17.4073C20.1271 17.014 19.9929 16.5103 19.5996 16.2824C19.2062 16.0545 18.7025 16.1886 18.4746 16.582Z" fill="#5E5E5E"/>
<path d="M20.8738 17.9667C20.5837 18.4673 20.7544 19.1084 21.2551 19.3984C21.7557 19.6885 22.3967 19.5178 22.6868 19.0171C22.9769 18.5165 22.8062 17.8754 22.3056 17.5854C21.8049 17.2953 21.1639 17.466 20.8738 17.9667Z" fill="#454545"/>
<path d="M23.6622 19.5759C23.2685 20.2554 23.5001 21.1254 24.1796 21.519C24.8591 21.9127 25.729 21.681 26.1227 21.0015C26.5164 20.3221 26.2848 19.4521 25.6053 19.0584C24.9259 18.6647 24.0559 18.8964 23.6622 19.5759Z" fill="#0D0D0D"/>
<path d="M15.3469 16.3349C15.0608 16.5006 14.9633 16.8669 15.1291 17.153C15.2948 17.4391 15.6611 17.5367 15.9472 17.3709C16.2333 17.2052 16.3308 16.8389 16.1651 16.5528C15.9993 16.2667 15.633 16.1691 15.3469 16.3349Z" fill="#999999"/>
<path d="M16.582 18.4747C16.1886 18.7026 16.0545 19.2063 16.2824 19.5997C16.5103 19.993 17.014 20.1272 17.4074 19.8993C17.8007 19.6713 17.9349 19.1677 17.7069 18.7743C17.479 18.3809 16.9753 18.2468 16.582 18.4747Z" fill="#5E5E5E"/>
<path d="M17.9667 20.874C17.4661 21.1641 17.2954 21.8051 17.5855 22.3058C17.8756 22.8065 18.5166 22.9772 19.0173 22.6871C19.5179 22.397 19.6886 21.756 19.3985 21.2553C19.1084 20.7547 18.4674 20.5839 17.9667 20.874Z" fill="#454545"/>
<path d="M19.5759 23.6624C18.8964 24.056 18.6648 24.926 19.0585 25.6055C19.4522 26.285 20.3222 26.5166 21.0016 26.123C21.6811 25.7293 21.9127 24.8593 21.519 24.1799C21.1253 23.5004 20.2554 23.2687 19.5759 23.6624Z" fill="#0D0D0D"/>
<path d="M14 16.6952C13.6692 16.6952 13.4011 16.9634 13.4011 17.2941C13.4011 17.6249 13.6692 17.8931 14 17.8931C14.3308 17.8931 14.5989 17.6249 14.5989 17.2941C14.5989 16.9634 14.3308 16.6952 14 16.6952Z" fill="#999999"/>
<path d="M14 19.1657C13.5452 19.1657 13.1765 19.5344 13.1765 19.9892C13.1765 20.444 13.5452 20.8127 14 20.8127C14.4548 20.8127 14.8235 20.444 14.8235 19.9892C14.8235 19.5344 14.4548 19.1657 14 19.1657Z" fill="#5E5E5E"/>
<path d="M14 21.9357C13.4212 21.9357 12.9519 22.405 12.9519 22.9839C12.9519 23.5627 13.4212 24.032 14 24.032C14.5789 24.032 15.0482 23.5627 15.0482 22.9839C15.0482 22.405 14.5789 21.9357 14 21.9357Z" fill="#454545"/>
<path d="M14 25.1551C13.2144 25.1551 12.5776 25.7919 12.5776 26.5775C12.5776 27.3631 13.2144 28 14 28C14.7856 28 15.4225 27.3631 15.4225 26.5775C15.4225 25.7919 14.7856 25.1551 14 25.1551Z" fill="#0D0D0D"/>
<path d="M12.6529 16.335C12.3668 16.1692 12.0005 16.2668 11.8348 16.5529C11.669 16.839 11.7665 17.2053 12.0526 17.371C12.3387 17.5368 12.705 17.4392 12.8708 17.1531C13.0365 16.867 12.939 16.5007 12.6529 16.335Z" fill="#999999"/>
<path d="M11.4179 18.4748C11.0245 18.2469 10.5209 18.381 10.2929 18.7744C10.065 19.1677 10.1991 19.6714 10.5925 19.8993C10.9859 20.1272 11.4895 19.9931 11.7175 19.5997C11.9454 19.2063 11.8113 18.7027 11.4179 18.4748Z" fill="#5E5E5E"/>
<path d="M10.0331 20.8741C9.53247 20.584 8.89144 20.7547 8.60135 21.2554C8.31125 21.7561 8.48194 22.3971 8.98259 22.6872C9.48324 22.9772 10.1243 22.8065 10.4144 22.3059C10.7045 21.8052 10.5338 21.1642 10.0331 20.8741Z" fill="#454545"/>
<path d="M8.42391 23.6623C7.74445 23.2686 6.87449 23.5003 6.48079 24.1798C6.08709 24.8592 6.31874 25.7292 6.99819 26.1229C7.67765 26.5166 8.54761 26.2849 8.94131 25.6054C9.33501 24.9259 9.10336 24.0559 8.42391 23.6623Z" fill="#0D0D0D"/>
<path d="M11.6654 15.347C11.4996 15.061 11.1333 14.9634 10.8472 15.1292C10.5611 15.2949 10.4636 15.6612 10.6294 15.9473C10.7951 16.2334 11.1614 16.331 11.4475 16.1652C11.7336 15.9994 11.8311 15.6331 11.6654 15.347Z" fill="#999999"/>
<path d="M9.52548 16.5822C9.29755 16.1888 8.79388 16.0547 8.40052 16.2826C8.00715 16.5105 7.87303 17.0142 8.10097 17.4076C8.3289 17.801 8.83256 17.9351 9.22593 17.7072C9.6193 17.4793 9.75341 16.9756 9.52548 16.5822Z" fill="#5E5E5E"/>
<path d="M7.12631 17.9668C6.83622 17.4662 6.19519 17.2954 5.69454 17.5855C5.19389 17.8756 5.0232 18.5166 5.3133 19.0173C5.60339 19.518 6.24442 19.6887 6.74507 19.3986C7.24572 19.1085 7.41641 18.4675 7.12631 17.9668Z" fill="#454545"/>
<path d="M4.33793 19.576C3.94424 18.8965 3.07427 18.6648 2.39482 19.0585C1.71537 19.4522 1.48371 20.3222 1.87741 21.0016C2.27111 21.6811 3.14108 21.9128 3.82053 21.5191C4.49999 21.1254 4.73163 20.2555 4.33793 19.576Z" fill="#0D0D0D"/>
<path d="M11.3048 13.9999C11.3048 13.6692 11.0366 13.401 10.7059 13.401C10.3751 13.401 10.1069 13.6692 10.1069 13.9999C10.1069 14.3307 10.3751 14.5989 10.7059 14.5989C11.0366 14.5989 11.3048 14.3307 11.3048 13.9999Z" fill="#999999"/>
<path d="M8.83425 14C8.83425 13.5451 8.46555 13.1764 8.01072 13.1764C7.5559 13.1764 7.18719 13.5451 7.18719 14C7.18719 14.4548 7.5559 14.8235 8.01072 14.8235C8.46555 14.8235 8.83425 14.4548 8.83425 14Z" fill="#5E5E5E"/>
<path d="M6.06415 14C6.06415 13.4211 5.59489 12.9518 5.01602 12.9518C4.43716 12.9518 3.9679 13.4211 3.9679 14C3.9679 14.5788 4.43716 15.0481 5.01602 15.0481C5.59489 15.0481 6.06415 14.5788 6.06415 14Z" fill="#454545"/>
<path d="M2.84492 13.9999C2.84492 13.2143 2.20806 12.5774 1.42246 12.5774C0.636858 12.5774 0 13.2143 0 13.9999C0 14.7855 0.636858 15.4224 1.42246 15.4224C2.20806 15.4224 2.84492 14.7855 2.84492 13.9999Z" fill="#0D0D0D"/>
<path d="M11.6652 12.653C11.831 12.3669 11.7334 12.0006 11.4473 11.8349C11.1613 11.6691 10.795 11.7667 10.6292 12.0528C10.4634 12.3389 10.561 12.7052 10.847 12.8709C11.1331 13.0367 11.4994 12.9391 11.6652 12.653Z" fill="#999999"/>
<path d="M9.52539 11.418C9.75332 11.0246 9.61921 10.521 9.22584 10.2931C8.83247 10.0651 8.32881 10.1993 8.10088 10.5927C7.87295 10.986 8.00706 11.4897 8.40043 11.7176C8.7938 11.9455 9.29746 11.8114 9.52539 11.418Z" fill="#5E5E5E"/>
<path d="M7.12618 10.0333C7.41627 9.53266 7.24559 8.89164 6.74494 8.60156C6.24428 8.31148 5.60326 8.4822 5.31317 8.98287C5.02307 9.48353 5.19376 10.1246 5.69441 10.4146C6.19506 10.7047 6.83608 10.534 7.12618 10.0333Z" fill="#454545"/>
<path d="M4.33781 8.42409C4.73151 7.74461 4.49986 6.87465 3.8204 6.48097C3.14095 6.08729 2.27098 6.31898 1.87729 6.99846C1.48359 7.67793 1.71524 8.5479 2.39469 8.94157C3.07414 9.33525 3.94411 9.10356 4.33781 8.42409Z" fill="#0D0D0D"/>
<path d="M12.6531 11.6651C12.9392 11.4994 13.0367 11.1331 12.8709 10.847C12.7052 10.5609 12.3389 10.4633 12.0528 10.6291C11.7667 10.7948 11.6692 11.1611 11.8349 11.4472C12.0007 11.7333 12.367 11.8309 12.6531 11.6651Z" fill="#999999"/>
<path d="M11.418 9.52531C11.8114 9.29739 11.9455 8.79373 11.7176 8.40035C11.4897 8.00696 10.986 7.87283 10.5926 8.10075C10.1993 8.32866 10.0651 8.83233 10.2931 9.22571C10.521 9.61909 11.0247 9.75322 11.418 9.52531Z" fill="#5E5E5E"/>
<path d="M10.0333 7.12598C10.5339 6.8359 10.7046 6.19488 10.4145 5.69421C10.1244 5.19354 9.48339 5.02283 8.98274 5.3129C8.48209 5.60298 8.3114 6.24401 8.6015 6.74467C8.89159 7.24534 9.53261 7.41606 10.0333 7.12598Z" fill="#454545"/>
<path d="M8.4241 4.33764C9.10355 3.94396 9.3352 3.074 8.9415 2.39452C8.5478 1.71504 7.67784 1.48335 6.99839 1.87703C6.31893 2.27071 6.08728 3.14067 6.48098 3.82015C6.87468 4.49962 7.74465 4.73131 8.4241 4.33764Z" fill="#0D0D0D"/>
</svg>
