<svg overflow="visible" style="display: block;" viewBox="0 0 2331.14 172.148" fill="none" xmlns="http://www.w3.org/2000/svg">
<g id="BOMBARDIER">
<path d="M0 167.276V4.8721H161.243C203.236 4.8721 228.061 21.8085 228.061 48.721C228.061 65.4254 218.781 77.7217 202.308 84.9138C222.493 91.178 234.557 103.938 234.557 122.963C234.557 150.571 209.965 167.276 168.204 167.276H0ZM157.995 36.8888H45.705V70.9935H157.763C174.004 70.9935 182.588 64.7294 182.588 53.5932C182.588 42.9209 174.236 36.8888 157.995 36.8888ZM164.028 102.082H45.705V136.187H164.028C179.804 136.187 188.62 130.387 188.62 119.483C188.62 108.578 179.804 102.082 164.028 102.082Z" fill="currentColor"/>
<path d="M375.705 172.148C298.911 172.148 241.374 135.259 241.374 86.0739C241.374 36.8888 298.911 0 375.705 0C452.499 0 509.804 36.8888 509.804 86.0739C509.804 135.259 452.499 172.148 375.705 172.148ZM375.705 139.435C425.354 139.435 461.779 116.003 461.779 86.0739C461.779 56.1452 425.354 32.7127 375.705 32.7127C326.056 32.7127 289.399 56.1452 289.399 86.0739C289.399 116.003 326.056 139.435 375.705 139.435Z" fill="currentColor"/>
<path d="M521.903 167.276V4.8721H589.648L624.913 66.5854L659.714 128.299L694.746 66.5854L730.011 4.8721H797.756V167.276H752.052V42.9209L683.146 167.276H634.657L565.751 42.9209V167.276H521.903Z" fill="currentColor"/>
<path d="M813.214 167.276V4.8721H974.457C1016.45 4.8721 1041.27 21.8085 1041.27 48.721C1041.27 65.4254 1031.99 77.7217 1015.52 84.9138C1035.71 91.178 1047.77 103.938 1047.77 122.963C1047.77 150.571 1023.18 167.276 981.417 167.276H813.214ZM971.209 36.8888H858.919V70.9935H970.977C987.218 70.9935 995.802 64.7294 995.802 53.5932C995.802 42.9209 987.45 36.8888 971.209 36.8888ZM977.241 102.082H858.919V136.187H977.241C993.018 136.187 1001.83 130.387 1001.83 119.483C1001.83 108.578 993.018 102.082 977.241 102.082Z" fill="currentColor"/>
<path d="M1037.87 167.276L1152.95 4.8721H1202.6L1317.67 167.276H1264.08L1240.18 132.011H1112.35L1088.45 167.276H1037.87ZM1176.38 37.1208L1132.3 102.546H1220.23L1176.38 37.1208Z" fill="currentColor"/>
<path d="M1321.98 167.276V4.8721H1482.99C1525.68 4.8721 1552.36 21.8085 1552.36 52.2011C1552.36 71.9216 1540.29 86.5379 1519.88 93.034C1535.65 96.2821 1544.93 104.866 1546.32 122.267C1547.72 144.771 1550.5 158.691 1554.91 167.276H1506.65C1503.4 158.227 1502.01 147.555 1500.85 128.763C1500.39 112.522 1492.5 108.114 1473.94 108.114H1368.14V167.276H1321.98ZM1478.35 36.4248H1368.14V77.0257H1478.35C1496.44 77.0257 1506.88 69.6015 1506.88 56.6092C1506.88 44.081 1496.44 36.4248 1478.35 36.4248Z" fill="currentColor"/>
<path d="M1565.03 167.276V4.8721H1682.19C1754.34 4.8721 1803.99 37.1208 1803.99 86.0739C1803.99 134.563 1753.88 167.276 1682.65 167.276H1565.03ZM1680.8 36.8888H1611.2V135.723H1680.8C1727.2 135.723 1755.97 116.467 1755.97 86.5379C1755.97 56.1452 1727.2 36.8888 1680.8 36.8888Z" fill="currentColor"/>
<path d="M1816.24 167.276V4.8721H1861.95V167.276H1816.24Z" fill="currentColor"/>
<path d="M1878.04 167.276V4.8721H2085.91V36.8888H1924.2V69.8335H2044.85V100.922H1924.2V135.723H2085.91V167.276H1878.04Z" fill="currentColor"/>
<path d="M2098.2 167.276V4.8721H2259.22C2301.9 4.8721 2328.59 21.8085 2328.59 52.2011C2328.59 71.9216 2316.52 86.5379 2296.1 93.034C2311.88 96.2821 2321.16 104.866 2322.55 122.267C2323.95 144.771 2326.73 158.691 2331.14 167.276H2282.88C2279.63 158.227 2278.24 147.555 2277.08 128.763C2276.62 112.522 2268.73 108.114 2250.17 108.114H2144.37V167.276H2098.2ZM2254.58 36.4248H2144.37V77.0257H2254.58C2272.67 77.0257 2283.11 69.6015 2283.11 56.6092C2283.11 44.081 2272.67 36.4248 2254.58 36.4248Z" fill="currentColor"/>
</g>
</svg>
