<svg width="64" height="64" viewBox="0 0 64 64" fill="none" xmlns="http://www.w3.org/2000/svg">
<rect width="64" height="64" fill="white" style="fill:white;fill-opacity:1;"/>
<path d="M48.5193 34.2144L48.4919 35.2612L48.4017 38.1263C48.3936 38.3791 48.4105 38.5587 48.4122 38.8075C48.4154 39.2899 48.2865 39.8004 48.1794 40.2546C48.045 40.8263 47.7841 41.2676 47.4104 41.7008C47.2614 41.8739 47.1632 42.0777 46.974 42.2355C46.1864 42.8894 45.316 43.3613 44.4334 43.8686L42.3277 45.0805C41.5127 45.5491 40.689 45.7432 39.8112 45.2367L26.44 37.5151C24.844 36.5931 22.6239 36.6696 21.0343 37.5699L19.7459 38.3002L18.7313 38.9018L17.459 39.6378C17.1353 39.8254 16.7302 40.1853 16.33 40.1346C15.7969 40.067 15.6407 39.4558 15.6327 39.0435L15.6633 36.7058V28.1089V25.2213C15.6633 25.1641 15.6142 25.1311 15.6005 25.1375L15.7333 24.4821C15.78 24.251 15.9363 24.0295 16.0893 23.9723C16.2624 23.9079 16.5829 23.8757 16.7536 23.974L20.5705 26.1739C22.9114 27.5235 24.8037 27.5364 27.1502 26.182L29.9493 24.5658C30.7545 24.1012 31.6725 23.8983 32.576 24.0464C33.4795 24.1946 34.2518 24.6327 35.0635 25.1013L46.4079 31.6512C46.8314 31.896 47.2244 32.0088 47.5707 32.3599C48.0353 32.8309 48.421 33.3495 48.4202 34.067C48.4202 34.125 48.4887 34.2015 48.5193 34.2144Z" fill="#1EC658" style="fill:#1EC658;fill:color(display-p3 0.1176 0.7765 0.3451);fill-opacity:1;"/>
<path d="M15.6651 36.705H15.5878L15.5862 28.1082H15.6643L15.6651 36.705Z" fill="#5AD382" style="fill:#5AD382;fill:color(display-p3 0.3529 0.8275 0.5098);fill-opacity:1;"/>
<path d="M15.6643 28.1083H15.5862L15.6015 25.137C15.616 25.1297 15.6643 25.1635 15.6643 25.2207V28.1083Z" fill="#6FD995" style="fill:#6FD995;fill:color(display-p3 0.4353 0.8510 0.5843);fill-opacity:1;"/>
<path d="M15.6337 39.0425L15.5878 36.7048H15.6651L15.6337 39.0425Z" fill="#6FD995" style="fill:#6FD995;fill:color(display-p3 0.4353 0.8510 0.5843);fill-opacity:1;"/>
<path d="M35.0016 23.5078C32.701 22.1936 30.9174 22.4392 28.7432 23.668L28.0273 24.0731L26.6592 24.8735C24.7596 25.9847 23.315 26.2142 21.3099 25.0361L17.5115 22.8056C17.1306 22.5817 16.9325 21.9617 17.3368 21.6653C18.2274 21.0115 19.1534 20.5034 20.123 19.9421L29.4188 14.5582C30.4954 13.9349 31.6453 13.7577 32.8693 13.947C33.1423 13.9897 33.4064 13.9969 33.6738 14.1105C34.4033 14.4197 35.0314 14.7957 35.7296 15.1983L44.378 20.1869C45.2791 20.7071 46.1584 21.1363 46.9331 21.8119C47.1875 22.0333 47.3325 22.2701 47.5088 22.5334C47.7931 22.9562 48.116 23.325 48.1917 23.8621C48.2352 24.1665 48.4139 24.5079 48.4156 24.8324L48.4349 30.0303C48.4357 30.2679 48.2706 30.5159 48.1273 30.5956C47.9678 30.685 47.6023 30.7687 47.4026 30.6536L38.308 25.3961L35.0016 23.5078Z" fill="#1EC658" style="fill:#1EC658;fill:color(display-p3 0.1176 0.7765 0.3451);fill-opacity:1;"/>
<path d="M34.3106 49.6785C33.5875 50.0956 32.903 50.2003 32.1364 50.2252C31.0437 50.2615 30.1636 49.9506 29.2238 49.4071L19.0575 43.5279C18.1677 43.0134 16.992 42.5246 17.112 41.7379C17.1418 41.543 17.2803 41.3312 17.513 41.1959L21.1222 39.1063C22.93 38.0595 24.3472 37.8734 26.1945 38.9428L30.5694 41.4745L32.1203 42.3474L37.439 45.4557C37.9069 45.7287 38.4512 45.9171 38.7444 46.3753C38.9481 46.6934 38.7564 47.1145 38.4521 47.2893L34.3106 49.6769V49.6785Z" fill="#1EC658" style="fill:#1EC658;fill:color(display-p3 0.1176 0.7765 0.3451);fill-opacity:1;"/>
</svg>
