<svg width="64" height="64" viewBox="0 0 64 64" fill="none" xmlns="http://www.w3.org/2000/svg">
<rect width="64" height="64" fill="#1B1607" style="fill:#1B1607;fill:color(display-p3 0.1050 0.0850 0.0266);fill-opacity:1;"/>
<path d="M27.4832 16.1687C28.9019 16.0633 30.3283 16.1367 31.7288 16.3873C35.9013 17.1691 39.5833 19.598 41.9441 23.1262C42.529 23.9863 43.9476 26.3943 43.7023 27.4202C43.6312 27.7179 43.3636 28.5431 43.2541 28.8843C42.6531 30.75 41.96 32.5847 41.1771 34.3817C39.8234 37.4652 39.0899 38.6256 35.482 37.9053C35.4816 37.4814 35.6928 36.4779 35.7766 36.0349C37.2501 36.2904 37.8087 36.3796 38.7154 35.0065C37.4801 32.7139 36.1365 29.5655 35.5548 27.0164C36.0908 27.0252 37.3917 26.9642 37.8327 27.07C38.1042 27.2671 39.4054 31.6534 39.7683 32.3907C40.0944 31.6313 41.337 27.6793 41.3052 26.9453C41.2896 26.5826 41.0772 26.1962 40.9187 25.8764C40.1356 24.297 39.056 22.9519 37.7549 21.7689C36.0398 20.2095 33.7127 19.0143 31.4243 18.5839C30.2033 18.3542 28.9374 18.3162 27.6987 18.3746C24.1946 18.5396 20.9077 20.303 18.5772 22.8736C16.176 25.5539 14.9325 29.0753 15.1182 32.6691C15.2517 35.2269 16.3636 38.1093 17.9441 40.1228C18.1505 40.3858 18.4257 40.7395 18.6691 40.9588C24.8082 47.8986 36.2237 46.4178 40.6027 38.3598C41.1937 37.2722 41.5496 36.2493 41.9867 35.1045C42.3465 34.1465 42.7272 33.1966 43.1287 32.2554C43.276 31.9052 44.0704 29.6741 44.3552 29.6713C44.444 30.062 44.5538 30.9438 44.5712 31.3443C44.6189 32.5696 44.5171 33.7962 44.268 34.997C41.8531 47.0377 26.8735 51.7247 17.9412 43.4379C14.8836 40.6451 13.0624 36.7508 12.8792 32.6137C12.6841 27.2699 14.8765 22.4532 19.1741 19.229C21.4548 17.518 24.6193 16.2721 27.4832 16.1687Z" fill="#D7813B" style="fill:#D7813B;fill:color(display-p3 0.8431 0.5059 0.2314);fill-opacity:1;"/>
<path d="M20.6875 26.9052C22.6025 26.7923 24.5168 26.9558 25.4757 28.9245C26.1722 30.3544 26.1029 32.6058 25.2059 33.9457C24.1838 35.4723 22.3262 35.6699 20.6835 35.1296L20.6279 35.159C20.6029 35.8273 20.5553 37.6192 20.6255 38.2093C19.9189 38.1401 19.0175 38.1564 18.3054 38.1654L18.2926 27.2147C18.5693 27.1899 18.9756 27.1029 19.2649 27.0597C19.7373 26.9923 20.2117 26.9408 20.6875 26.9052ZM20.6074 28.7717C20.6282 30.1049 20.5853 31.4438 20.6133 32.7779C20.6163 32.9221 20.6163 33.0681 20.6062 33.2119C21.2878 33.4026 22.1294 33.6093 22.7928 33.2369L22.8306 33.2154C23.4169 32.6995 23.524 32.3273 23.5756 31.573C23.685 29.9734 23.0864 28.6794 21.2845 28.7548C21.0601 28.7631 20.8315 28.7747 20.6074 28.7717Z" fill="#D7813B" style="fill:#D7813B;fill:color(display-p3 0.8431 0.5059 0.2314);fill-opacity:1;"/>
<path d="M30.5659 26.8638L30.6066 26.8617C31.6132 26.8139 32.7104 26.8916 33.4776 27.6059C34.6075 28.6579 34.341 30.2624 34.3703 31.6526C34.3936 32.7564 34.3287 33.858 34.3815 34.9595C33.2891 35.392 30.9995 35.4866 29.7951 35.3611C29.0255 35.281 28.2462 34.9754 27.7571 34.3421C27.0255 33.6151 27.1037 31.9299 27.7895 31.1674C28.9962 29.8259 30.7372 30.3493 32.2402 30.2009C32.0804 29.6646 32.0229 29.5124 31.7547 29.0152C30.5998 28.4885 29.5305 28.7256 28.305 28.9456C28.3032 28.5943 28.0081 27.3184 28.2558 27.1535C28.6587 26.8853 30.0426 26.879 30.5659 26.8638ZM29.9403 33.4892C30.3695 33.6142 30.7704 33.6037 31.2158 33.6095C31.5848 33.6029 31.8124 33.6 32.1735 33.5405C32.158 32.9442 32.1544 32.3477 32.1627 31.7513C31.6611 31.737 31.0174 31.7097 30.5217 31.7563C29.4681 31.987 29.3475 32.6587 29.9403 33.4892Z" fill="#D7813B" style="fill:#D7813B;fill:color(display-p3 0.8431 0.5059 0.2314);fill-opacity:1;"/>
<path d="M45.4879 24.7903C46.0205 24.8041 47.2547 24.7594 47.6611 24.811C47.7785 24.9831 47.7295 27.4256 47.7205 27.8247L50.5606 27.8184C50.5383 28.4527 50.5624 29.1066 50.5462 29.7507C49.7151 29.741 48.5243 29.7596 47.7382 29.7183C47.7341 30.572 47.5137 32.6199 48.193 33.2814C48.483 33.5638 49.6476 33.4427 50.0656 33.4081C50.2131 33.374 50.369 33.3436 50.5178 33.3121C51.0708 35.0762 50.933 35.2586 49.1693 35.4055C46.5336 35.625 45.3755 34.4645 45.4159 31.8359C45.4506 29.5846 45.4092 27.2372 45.4141 24.9755C45.4143 24.8963 45.4362 24.8496 45.4879 24.7903Z" fill="#D7813B" style="fill:#D7813B;fill:color(display-p3 0.8431 0.5059 0.2314);fill-opacity:1;"/>
<path d="M50.9982 21.4107L51.1178 21.3989C51.2104 21.5487 51.1168 25.0702 51.1543 25.6683C50.4407 25.5753 49.9641 25.6157 49.2479 25.6521C49.2071 24.9905 49.2314 24.1689 49.2389 23.4973L49.2453 23.3983C49.0563 23.2666 47.2981 23.3314 46.9444 23.3421C46.9059 22.7607 46.8857 21.9823 46.9411 21.4076C48.0464 21.4778 49.8684 21.4437 50.9982 21.4107Z" fill="#D7813B" style="fill:#D7813B;fill:color(display-p3 0.8431 0.5059 0.2314);fill-opacity:1;"/>
</svg>
